<svg width="28" height="28" viewBox="0 0 28 28" fill="none" xmlns="http://www.w3.org/2000/svg">
<mask id="path-1-inside-1_14_399" fill="white">
<path d="M6.25 5H21.75C22.5801 4.99995 23.3788 5.31755 23.9822 5.88767C24.5856 6.45779 24.948 7.23719 24.995 8.066L25 8.25V19.75C25.0001 20.5801 24.6824 21.3788 24.1123 21.9822C23.5422 22.5856 22.7628 22.948 21.934 22.995L21.75 23H6.25C5.41986 23.0001 4.62117 22.6824 4.01777 22.1123C3.41437 21.5422 3.052 20.7628 3.005 19.934L3 19.75V8.25C2.99995 7.41986 3.31755 6.62117 3.88767 6.01777C4.45779 5.41437 5.23719 5.052 6.066 5.005L6.25 5H21.75H6.25ZM23.5 10.905L14.346 15.665C14.2573 15.7111 14.1603 15.739 14.0607 15.747C13.9611 15.7551 13.8609 15.7432 13.766 15.712L13.654 15.665L4.5 10.905V19.75C4.50002 20.1892 4.66517 20.6123 4.96268 20.9354C5.26019 21.2585 5.6683 21.4579 6.106 21.494L6.25 21.5H21.75C22.1893 21.5 22.6126 21.3347 22.9357 21.037C23.2588 20.7392 23.4581 20.3309 23.494 19.893L23.5 19.75V10.905ZM21.75 6.5H6.25C5.81081 6.50002 5.38768 6.66517 5.06461 6.96268C4.74154 7.26019 4.54214 7.6683 4.506 8.106L4.5 8.25V9.214L14 14.154L23.5 9.214V8.25C23.5 7.81065 23.3347 7.38739 23.037 7.06429C22.7392 6.74119 22.3309 6.5419 21.893 6.506L21.75 6.5Z"/>
</mask>
<path d="M6.25 5H21.75C22.5801 4.99995 23.3788 5.31755 23.9822 5.88767C24.5856 6.45779 24.948 7.23719 24.995 8.066L25 8.25V19.75C25.0001 20.5801 24.6824 21.3788 24.1123 21.9822C23.5422 22.5856 22.7628 22.948 21.934 22.995L21.75 23H6.25C5.41986 23.0001 4.62117 22.6824 4.01777 22.1123C3.41437 21.5422 3.052 20.7628 3.005 19.934L3 19.75V8.25C2.99995 7.41986 3.31755 6.62117 3.88767 6.01777C4.45779 5.41437 5.23719 5.052 6.066 5.005L6.25 5H21.75H6.25ZM23.5 10.905L14.346 15.665C14.2573 15.7111 14.1603 15.739 14.0607 15.747C13.9611 15.7551 13.8609 15.7432 13.766 15.712L13.654 15.665L4.5 10.905V19.75C4.50002 20.1892 4.66517 20.6123 4.96268 20.9354C5.26019 21.2585 5.6683 21.4579 6.106 21.494L6.25 21.5H21.75C22.1893 21.5 22.6126 21.3347 22.9357 21.037C23.2588 20.7392 23.4581 20.3309 23.494 19.893L23.5 19.75V10.905ZM21.75 6.5H6.25C5.81081 6.50002 5.38768 6.66517 5.06461 6.96268C4.74154 7.26019 4.54214 7.6683 4.506 8.106L4.5 8.25V9.214L14 14.154L23.5 9.214V8.25C23.5 7.81065 23.3347 7.38739 23.037 7.06429C22.7392 6.74119 22.3309 6.5419 21.893 6.506L21.75 6.5Z" fill="black"/>
<path d="M6.25 5V3H6.22283L6.19567 3.00074L6.25 5ZM21.75 5V7H21.7501L21.75 5ZM24.995 8.066L26.9943 8.01168L26.9935 7.98221L26.9918 7.95277L24.995 8.066ZM25 8.25H27V8.22284L26.9993 8.19568L25 8.25ZM25 19.75H23V19.7501L25 19.75ZM21.934 22.995L21.9883 24.9943L22.0178 24.9935L22.0472 24.9918L21.934 22.995ZM21.75 23V25H21.7772L21.8043 24.9993L21.75 23ZM6.25 23V21H6.24987L6.25 23ZM3.005 19.934L1.00574 19.9883L1.00654 20.0178L1.00821 20.0472L3.005 19.934ZM3 19.75H1V19.7772L1.00074 19.8043L3 19.75ZM3 8.25H5V8.24987L3 8.25ZM6.066 5.005L6.01167 3.00574L5.9822 3.00654L5.95277 3.00821L6.066 5.005ZM14.346 15.665L15.2682 17.4397L15.2687 17.4394L14.346 15.665ZM13.766 15.712L12.9921 17.5562L13.0657 17.5871L13.1416 17.612L13.766 15.712ZM13.654 15.665L12.7313 17.4394L12.8043 17.4774L12.8801 17.5092L13.654 15.665ZM4.5 10.905L5.42269 9.13056L2.5 7.61078V10.905H4.5ZM4.5 19.75H2.5V19.7501L4.5 19.75ZM6.106 21.494L5.94143 23.4872L5.98203 23.4906L6.02273 23.4923L6.106 21.494ZM6.25 21.5L6.16673 23.4983L6.20835 23.5H6.25V21.5ZM21.75 21.5V23.5H21.7502L21.75 21.5ZM23.494 19.893L25.4873 20.0564L25.4906 20.0167L25.4922 19.9768L23.494 19.893ZM23.5 19.75L25.4982 19.8338L25.5 19.7919V19.75H23.5ZM21.75 6.5L21.8338 4.50176L21.7919 4.5H21.75V6.5ZM6.25 6.5V4.5H6.24993L6.25 6.5ZM4.506 8.106L2.51278 7.94143L2.50943 7.98203L2.50773 8.02274L4.506 8.106ZM4.5 8.25L2.50173 8.16674L2.5 8.20835V8.25H4.5ZM4.5 9.214H2.5V10.4282L3.57729 10.9884L4.5 9.214ZM14 14.154L13.0773 15.9284L14 16.4082L14.9227 15.9284L14 14.154ZM23.5 9.214L24.4227 10.9884L25.5 10.4282V9.214H23.5ZM23.5 8.25H25.5V8.24983L23.5 8.25ZM21.893 6.506L22.0564 4.51269L22.0167 4.50943L21.9768 4.50776L21.893 6.506ZM6.25 7H21.75V3H6.25V7ZM21.7501 7C22.0694 6.99998 22.3766 7.12214 22.6087 7.34141L25.3558 4.43393C24.3811 3.51297 23.0909 2.99991 21.7499 3L21.7501 7ZM22.6087 7.34141C22.8408 7.56069 22.9801 7.86046 22.9982 8.17923L26.9918 7.95277C26.9159 6.61393 26.3305 5.35489 25.3558 4.43393L22.6087 7.34141ZM22.9957 8.12032L23.0007 8.30432L26.9993 8.19568L26.9943 8.01168L22.9957 8.12032ZM23 8.25V19.75H27V8.25H23ZM23 19.7501C23 20.0694 22.8779 20.3766 22.6586 20.6087L25.5661 23.3558C26.487 22.3811 27.0001 21.0909 27 19.7499L23 19.7501ZM22.6586 20.6087C22.4393 20.8408 22.1395 20.9801 21.8208 20.9982L22.0472 24.9918C23.3861 24.9159 24.6451 24.3305 25.5661 23.3558L22.6586 20.6087ZM21.8797 20.9957L21.6957 21.0007L21.8043 24.9993L21.9883 24.9943L21.8797 20.9957ZM21.75 21H6.25V25H21.75V21ZM6.24987 21C5.93059 21 5.6234 20.8779 5.39132 20.6586L2.64422 23.5661C3.61895 24.487 4.90914 25.0001 6.25013 25L6.24987 21ZM5.39132 20.6586C5.15924 20.4393 5.01987 20.1395 5.00179 19.8208L1.00821 20.0472C1.08413 21.3861 1.66949 22.6451 2.64422 23.5661L5.39132 20.6586ZM5.00426 19.8797L4.99926 19.6957L1.00074 19.8043L1.00574 19.9883L5.00426 19.8797ZM5 19.75V8.25H1V19.75H5ZM5 8.24987C4.99998 7.93059 5.12214 7.6234 5.34141 7.39132L2.43393 4.64422C1.51297 5.61895 0.999912 6.90914 1 8.25013L5 8.24987ZM5.34141 7.39132C5.56069 7.15924 5.86046 7.01987 6.17923 7.00179L5.95277 3.00821C4.61393 3.08413 3.35489 3.66949 2.43393 4.64422L5.34141 7.39132ZM6.12033 7.00426L6.30433 6.99926L6.19567 3.00074L6.01167 3.00574L6.12033 7.00426ZM6.25 7H21.75V3H6.25V7ZM21.75 3H6.25V7H21.75V3ZM22.5773 9.13056L13.4233 13.8906L15.2687 17.4394L24.4227 12.6794L22.5773 9.13056ZM13.4238 13.8903C13.5716 13.8135 13.7332 13.767 13.8992 13.7536L14.2223 17.7405C14.5875 17.7109 14.9431 17.6086 15.2682 17.4397L13.4238 13.8903ZM13.8992 13.7536C14.0652 13.7401 14.2322 13.76 14.3904 13.812L13.1416 17.612C13.4896 17.7264 13.8571 17.7701 14.2223 17.7405L13.8992 13.7536ZM14.5399 13.8678L14.4279 13.8208L12.8801 17.5092L12.9921 17.5562L14.5399 13.8678ZM14.5767 13.8906L5.42269 9.13056L3.57731 12.6794L12.7313 17.4394L14.5767 13.8906ZM2.5 10.905V19.75H6.5V10.905H2.5ZM2.5 19.7501C2.50004 20.6912 2.85394 21.5979 3.49146 22.2902L6.4339 19.5806C6.4764 19.6267 6.5 19.6872 6.5 19.7499L2.5 19.7501ZM3.49146 22.2902C4.12898 22.9825 5.0035 23.4098 5.94143 23.4872L6.27057 19.5008C6.3331 19.5059 6.3914 19.5344 6.4339 19.5806L3.49146 22.2902ZM6.02273 23.4923L6.16673 23.4983L6.33327 19.5017L6.18927 19.4957L6.02273 23.4923ZM6.25 23.5H21.75V19.5H6.25V23.5ZM21.7502 23.5C22.6916 23.4999 23.5986 23.1457 24.291 22.5078L21.5804 19.5662C21.6266 19.5236 21.6871 19.5 21.7498 19.5L21.7502 23.5ZM24.291 22.5078C24.9833 21.8698 25.4104 20.9947 25.4873 20.0564L21.5007 19.7296C21.5058 19.667 21.5343 19.6087 21.5804 19.5662L24.291 22.5078ZM25.4922 19.9768L25.4982 19.8338L21.5018 19.6662L21.4958 19.8091L25.4922 19.9768ZM25.5 19.75V10.905H21.5V19.75H25.5ZM21.75 4.5H6.25V8.5H21.75V4.5ZM6.24993 4.5C5.3088 4.50004 4.4021 4.85394 3.7098 5.49146L6.41942 8.4339C6.37326 8.4764 6.31282 8.5 6.25007 8.5L6.24993 4.5ZM3.7098 5.49146C3.0175 6.12898 2.59022 7.0035 2.51278 7.94143L6.49922 8.27057C6.49405 8.3331 6.46557 8.3914 6.41942 8.4339L3.7098 5.49146ZM2.50773 8.02274L2.50173 8.16674L6.49827 8.33326L6.50427 8.18926L2.50773 8.02274ZM2.5 8.25V9.214H6.5V8.25H2.5ZM3.57729 10.9884L13.0773 15.9284L14.9227 12.3796L5.42271 7.43957L3.57729 10.9884ZM14.9227 15.9284L24.4227 10.9884L22.5773 7.43957L13.0773 12.3796L14.9227 15.9284ZM25.5 9.214V8.25H21.5V9.214H25.5ZM25.5 8.24983C25.4999 7.30837 25.1457 6.40138 24.5078 5.70903L21.5662 8.41956C21.5236 8.3734 21.5 8.31293 21.5 8.25017L25.5 8.24983ZM24.5078 5.70903C23.8698 5.01667 22.9947 4.58962 22.0564 4.51269L21.7296 8.49931C21.667 8.49418 21.6087 8.46571 21.5662 8.41956L24.5078 5.70903ZM21.9768 4.50776L21.8338 4.50176L21.6662 8.49824L21.8092 8.50424L21.9768 4.50776Z" fill="black" mask="url(#path-1-inside-1_14_399)"/>
</svg>
